<svg xmlns="http://www.w3.org/2000/svg" width="86" height="110" viewBox="0 0 86 110">
  <defs>
    <style>
      .a {
        fill: #acaaaa;
      }

      .b {
        fill: #3a81c4;
      }

      .c {
        fill: #009e41;
      }
    </style>
  </defs>
  <g>
    <g>
      <path class="a" d="M13.71,102.67c0,4-2.56,7.32-6.83,7.32S.05,106.66.05,102.67s2.56-7.32,6.83-7.32S13.71,98.68,13.71,102.67Zm-11.16,0c0,2.68,1.28,5.32,4.33,5.32s4.33-2.64,4.33-5.32-1.28-5.32-4.33-5.32S2.55,100,2.55,102.67Z"/>
      <path class="a" d="M15.1,95.68h6.61c2.45,0,4.05,1.14,4.05,3.47a3.07,3.07,0,0,1-2,3v0c1.66.37,2.56,1.7,2.56,3.6,0,2.19-1.49,3.89-5,3.89H15.1Zm2.38,5.85h3.89a1.84,1.84,0,0,0,2-1.93c0-1.41-.71-1.92-2-1.92H17.48Zm0,6.13H21.7a2.19,2.19,0,1,0,0-4.37H17.48Z"/>
      <path class="a" d="M31.17,95.68h2.61l5.38,14H36.53L35.22,106H29.65l-1.31,3.69H25.81Zm-.86,8.42h4.27l-2.1-6h0Z"/>
      <path class="a" d="M40.69,104.17,35.5,95.68h2.81L42,101.94l3.6-6.26h2.71l-5.17,8.49v5.48H40.69Z"/>
      <path class="a" d="M50.14,95.68h2.6l5.38,14H55.5L54.19,106H48.61l-1.31,3.69H44.77Zm-.87,8.42h4.27l-2.09-6h-.06Z"/>
      <path class="a" d="M59.88,105c0,2.15,1.58,3,3.54,3,2.15,0,3-1.06,3-2.11a1.64,1.64,0,0,0-1.15-1.72c-1-.38-2.25-.63-4.17-1.16-2.38-.64-3.09-2.09-3.09-3.54,0-2.8,2.58-4.11,5.11-4.11,2.91,0,5.36,1.55,5.36,4.46H66c-.11-1.8-1.33-2.46-3-2.46-1.13,0-2.56.41-2.56,1.82,0,1,.66,1.52,1.66,1.8.22.06,3.31.86,4,1.07a3.7,3.7,0,0,1,2.72,3.56c0,3.13-2.78,4.39-5.56,4.39-3.19,0-5.77-1.53-5.83-5Z"/>
      <path class="a" d="M69.87,95.68h2.39v5.56H78.5V95.68h2.39v14H78.5v-6.3H72.26v6.3H69.87Z"/>
      <path class="a" d="M82.65,95.68h2.44v14H82.65Z"/>
    </g>
    <g>
      <path class="b" d="M61.27,17.86,43.42,0,25.58,17.86a117.76,117.76,0,0,1,35.69,0Z"/>
      <path class="c" d="M1,42.47l-.06.06L43.42,85.05,86,42.53l-.07-.06A100.38,100.38,0,0,0,1,42.47Z"/>
    </g>
  </g>
</svg>
